# xmcd CD database file
# Copyright (C) 1996 Ti Kan
#
# Track frame offsets:
#	150
#	18020
#	41110
#	65307
#	83552
#	100807
#	118580
#	149722
#	170160
#	192695
#	220060
#	236565
#	250832
#	266662
#	285637
#	296800
#	322047
#
# Disc length: 4573 seconds
#
# Revision: 1
# Processed by: cddbd v1.4b41PL1 Copyright (c) Steve Scherf et al.
# Submitted via: EasyCD 2.21 - (C) 1996 Greg Leichner
#
DISCID=0811db11
DTITLE=Garth Brooks - The Beaches of Cheyenne
DYEAR=1900
DGENRE=
TTITLE0=The Fever
TTITLE1=The Beaches of Cheyenne
TTITLE2=The Thunder Rolls
TTITLE3=She`s Every Woman
TTITLE4=Rodeo
TTITLE5=If Tomorrow Never Comes
TTITLE6=The Dance
TTITLE7=The River
TTITLE8=That Summer
TTITLE9=Friens in Low Places
TTITLE10=Not Counting You
TTITLE11=Much Too Young (To Feel This Damn Old)
TTITLE12=Alabama City
TTITLE13=If Tomorow Never Comes
TTITLE14=Nobody Gets Off In This Town
TTITLE15=Everytime That It Rains
TTITLE16=The Dance
EXTD=
EXTT0=
EXTT1=
EXTT2=
EXTT3=
EXTT4=
EXTT5=
EXTT6=
EXTT7=
EXTT8=
EXTT9=
EXTT10=
EXTT11=
EXTT12=
EXTT13=
EXTT14=
EXTT15=
EXTT16=
PLAYORDER=
